#!OML:ASF X:\für Bonn\!DataBase\2005_08_10_Bjorn_Final\c3d\bjorn.ASF
:FULLY-SPECIFIED
:DEGREES
415
root 12.1445 19.2937 -0.198803 107.68 -93.529 -102.536
lowerback 0.441971 0.294623 -0.718707
upperback 2.82628 0.385206 -0.75743
thorax 2.65081 0.171442 -0.367872
lowerneck -5.99881 -1.46096 4.34916
upperneck 4.00001 -2.00788 -6.12201
head 2.23164 -1.11819 -2.83951
rclavicle 2.13694e-015 1.39149e-015
rhumerus -23.3174 -0.910749 -87.1748
rradius 29.4597
rwrist -2.56671
rhand -16.1459 10.4374
rfingers 7.12502
rthumb 10.0594 -19.3022
lclavicle 2.13694e-015 1.39149e-015
lhumerus -23.1649 -28.209 95.9875
lradius 39.9041
lwrist -17.2322
lhand -23.0467 -13.2909
lfingers 7.12502
lthumb 3.39799 16.6617
rfemur -10.1907 -17.3756 13.2299
rtibia 27.5674
rfoot -9.79327 28.9911
rtoes 14.5158
lfemur -16.487 8.35575 -16.8073
ltibia 37.9527
lfoot -12.6921 -6.92038
ltoes -19.9348
416
root 12.1454 19.2971 -0.179202 105.65 -93.5303 -100.445
lowerback 0.638424 0.348516 -0.669961
upperback 2.94804 0.452839 -0.809202
thorax 2.66664 0.205375 -0.447981
lowerneck -6.18799 -1.45318 4.553
upperneck 3.60443 -2.03152 -6.20177
head 2.13326 -1.13032 -2.90136
rclavicle 1.2921e-015 2.5842e-015
rhumerus -22.9442 -0.654085 -87.2823
rradius 28.9239
rwrist -2.20512
rhand -15.7624 10.4506
rfingers 7.12502
rthumb 10.4294 -19.2707
lclavicle 1.2921e-015 2.5842e-015
lhumerus -23.3343 -28.096 95.8797
lradius 40.459
lwrist -17.1833
lhand -23.2124 -13.394
lfingers 7.12502
lthumb 3.23799 16.5612
rfemur -10.2036 -17.2142 13.1568
rtibia 27.4205
rfoot -9.75177 28.9061
rtoes 14.3928
lfemur -16.9847 8.1276 -17.047
ltibia 37.9573
lfoot -12.8442 -6.95843
ltoes -19.8886
417
root 12.143 19.303 -0.159124 103.266 -93.5097 -98.0079
lowerback 0.844158 0.397618 -0.607765
upperback 3.04689 0.51394 -0.856249
thorax 2.65397 0.23657 -0.531233
lowerneck -6.29153 -1.42801 4.73578
upperneck 3.17298 -2.03057 -6.27067
head 2.00908 -1.12962 -2.95244
rclavicle 9.44227e-016 -7.15625e-015
rhumerus -22.6339 -0.359021 -87.3918
rradius 28.4332
rwrist -1.91187
rhand -15.5629 10.3118
rfingers 7.12502
rthumb 10.6218 -19.3998
lclavicle 9.44227e-016 -7.15625e-015
lhumerus -23.5905 -27.9117 95.7962
lradius 41.0186
lwrist -17.1085
lhand -23.3714 -13.5125
lfingers 7.12502
lthumb 3.08446 16.4449
rfemur -10.1863 -17.1564 13.0908
rtibia 27.242
rfoot -9.62629 28.9556
rtoes 14.2898
lfemur -17.446 7.9314 -17.2542
ltibia 37.8975
lfoot -13.037 -6.79016
ltoes -19.9781
418
root 12.139 19.3106 -0.138125 100.955 -93.5177 -95.6175
lowerback 1.01004 0.45976 -0.537685
upperback 3.14365 0.593664 -0.939697
thorax 2.6625 0.277749 -0.656001
lowerneck -6.3827 -1.41377 4.94439
upperneck 2.73961 -2.04761 -6.32206
head 1.88116 -1.13746 -3.00299
rclavicle -8.94531e-016 -7.7526e-015
rhumerus -22.3163 -0.208747 -87.5115
rradius 27.9211
rwrist -1.58011
rhand -15.38 10.2993
rfingers 7.12502
rthumb 10.7982 -19.4031
lclavicle -8.94531e-016 -7.7526e-015
lhumerus -23.8546 -27.7392 95.6817
lradius 41.5723
lwrist -17.0573
lhand -23.3893 -13.6132
lfingers 7.12502
lthumb 3.0671 16.3445
rfemur -10.1746 -16.973 13.0167
rtibia 27.0345
rfoot -9.58109 28.8775
rtoes 14.1972
lfemur -17.914 7.72618 -17.4881
ltibia 37.781
lfoot -13.2568 -6.45168
ltoes -20.3477
419
root 12.1321 19.3171 -0.116617 98.3684 -93.5113 -92.9615
lowerback 1.163 0.517473 -0.468114
upperback 3.24323 0.667455 -1.00897
thorax 2.68147 0.315826 -0.766154
lowerneck -6.45906 -1.38156 5.17104
upperneck 2.3021 -2.04179 -6.40087
head 1.75085 -1.13502 -3.06567
rclavicle -7.00716e-015 -4.37326e-015
rhumerus -22.051 0.0132109 -87.6439
rradius 27.478
rwrist -1.34133
rhand -15.2164 10.2247
rfingers 7.12502
rthumb 10.9561 -19.4694
lclavicle -7.00716e-015 -4.37326e-015
lhumerus -24.1379 -27.5111 95.5674
lradius 42.1499
lwrist -16.9914
lhand -23.33 -13.6646
lfingers 7.12502
lthumb 3.12441 16.2923
rfemur -10.1402 -16.8876 12.9455
rtibia 26.8031
rfoot -9.42969 28.8961
rtoes 14.2167
lfemur -18.3364 7.50467 -17.6915
ltibia 37.6188
lfoot -13.6009 -5.98145
ltoes -20.6238
420
root 12.1236 19.3228 -0.0945552 95.9817 -93.4938 -90.4869
lowerback 1.29492 0.576426 -0.370156
upperback 3.32505 0.743503 -1.08309
thorax 2.69484 0.356097 -0.897245
lowerneck -6.55374 -1.35597 5.38376
upperneck 1.95707 -2.04159 -6.47711
head 1.6541 -1.13639 -3.12761
rclavicle -6.60959e-015 -1.33186e-014
rhumerus -21.8344 0.249519 -87.7838
rradius 27.0694
rwrist -1.15518
rhand -15.1034 10.1561
rfingers 7.12502
rthumb 11.065 -19.5322
lclavicle -6.60959e-015 -1.33186e-014
lhumerus -24.4536 -27.2481 95.4507
lradius 42.6926
lwrist -17.0439
lhand -23.2591 -13.6809
lfingers 7.12502
lthumb 3.19292 16.275
rfemur -10.1123 -16.7448 12.9032
rtibia 26.5712
rfoot -9.36594 28.8537
rtoes 14.0815
lfemur -18.7594 7.28547 -17.8643
ltibia 37.4213
lfoot -13.9435 -5.48545
ltoes -20.6479
421
root 12.1131 19.3282 -0.0713239 93.5435 -93.5017 -87.9596
lowerback 1.41975 0.635588 -0.295459
upperback 3.40249 0.820168 -1.16154
thorax 2.70795 0.396225 -1.01989
lowerneck -6.65551 -1.32918 5.60308
upperneck 1.62818 -2.04063 -6.56288
head 1.56402 -1.13824 -3.19487
rclavicle -9.0447e-015 -1.21259e-014
rhumerus -21.6476 0.528293 -87.9222
rradius 26.7098
rwrist -1.13563
rhand -14.9407 10.0772
rfingers 7.12502
rthumb 11.2219 -19.6027
lclavicle -9.0447e-015 -1.21259e-014
lhumerus -24.7913 -26.9249 95.3388
lradius 43.2459
lwrist -17.0973
lhand -23.09 -13.66
lfingers 7.12502
lthumb 3.35622 16.2933
rfemur -10.0812 -16.6531 12.8287
rtibia 26.344
rfoot -9.29932 28.8662
rtoes 13.9915
lfemur -19.1542 7.08268 -18.0544
ltibia 37.1969
lfoot -14.1859 -4.98511
ltoes -20.811
422
root 12.0997 19.3331 -0.0487424 91.4122 -93.516 -85.7479
lowerback 1.51208 0.689825 -0.244138
upperback 3.4981 0.89049 -1.23394
thorax 2.758 0.432488 -1.12303
lowerneck -6.78505 -1.29738 5.82285
upperneck 1.33314 -2.03359 -6.66079
head 1.49046 -1.13829 -3.26781
rclavicle -8.69683e-015 5.1684e-015
rhumerus -21.4783 0.770958 -88.0598
rradius 26.4038
rwrist -1.15377
rhand -14.8132 9.95546
rfingers 7.12502
rthumb 11.3449 -19.7177
lclavicle -8.69683e-015 5.1684e-015
lhumerus -25.0831 -26.5684 95.2204
lradius 43.7387
lwrist -17.1554
lhand -22.9334 -13.6699
lfingers 7.12502
lthumb 3.50743 16.281
rfemur -10.0323 -16.4994 12.7567
rtibia 26.1203
rfoot -9.26316 28.8188
rtoes 13.867
lfemur -19.5051 6.89021 -18.2327
ltibia 36.9481
lfoot -14.4054 -4.56582
ltoes -20.9395
423
root 12.0844 19.3356 -0.0243049 88.9644 -93.5138 -83.2211
lowerback 1.59507 0.745317 -0.165791
upperback 3.58786 0.962542 -1.29571
thorax 2.80794 0.470383 -1.23038
lowerneck -6.87803 -1.27011 5.99936
upperneck 1.03386 -2.02851 -6.76336
head 1.40896 -1.13965 -3.33365
rclavicle -8.84592e-015 -1.0138e-014
rhumerus -21.3445 0.895488 -88.1529
rradius 26.1422
rwrist -1.0858
rhand -14.6438 9.85814
rfingers 7.12502
rthumb 11.5083 -19.8059
lclavicle -8.84592e-015 -1.0138e-014
lhumerus -25.4218 -26.1816 95.1228
lradius 44.235
lwrist -17.1293
lhand -22.7916 -13.5667
lfingers 7.12502
lthumb 3.64431 16.3819
rfemur -9.98958 -16.484 12.687
rtibia 25.921
rfoot -9.08529 28.9161
rtoes 14.0071
lfemur -19.8177 6.72174 -18.3849
ltibia 36.6758
lfoot -14.5699 -4.235
ltoes -20.6463
424
root 12.0666 19.3384 0.000107996 86.8116 -93.4986 -80.9786
lowerback 1.664 0.803222 -0.0893659
upperback 3.66308 1.03816 -1.34859
thorax 2.85104 0.510149 -1.32746
lowerneck -6.96345 -1.24088 6.20189
upperneck 0.76158 -2.02177 -6.87563
head 1.33489 -1.14033 -3.4085
rclavicle 7.65321e-015 1.63003e-014
rhumerus -21.2413 0.634622 -88.1775
rradius 25.8694
rwrist -0.750121
rhand -14.3977 9.84296
rfingers 7.12502
rthumb 11.7457 -19.8077
lclavicle 7.65321e-015 1.63003e-014
lhumerus -25.7894 -25.8079 95.0514
lradius 44.697
lwrist -17.1189
lhand -22.7628 -13.2286
lfingers 7.12502
lthumb 3.67218 16.7195
rfemur -9.96956 -16.4339 12.6425
rtibia 25.7581
rfoot -8.99823 28.9603
rtoes 14.0487
lfemur -20.0948 6.57398 -18.5053
ltibia 36.3805
lfoot -14.7213 -4.05933
ltoes -20.2343
425
root 12.0476 19.3377 0.0244849 84.4405 -93.4721 -78.5382
lowerback 1.74706 0.86678 -0.000624896
upperback 3.7357 1.12114 -1.3997
thorax 2.88431 0.553965 -1.42984
lowerneck -7.02058 -1.23577 6.29772
upperneck 0.492484 -2.03919 -6.90943
head 1.25572 -1.15169 -3.43584
rclavicle 2.11706e-014 5.1684e-015
rhumerus -21.158 0.151446 -88.1742
rradius 25.6244
rwrist -0.233156
rhand -14.1074 9.79909
rfingers 7.12502
rthumb 12.0255 -19.8354
lclavicle 2.11706e-014 5.1684e-015
lhumerus -26.1761 -25.3963 94.9761
lradius 45.1351
lwrist -17.1078
lhand -22.7152 -12.9149
lfingers 7.12502
lthumb 3.71812 17.0324
rfemur -9.93581 -16.3046 12.6183
rtibia 25.6391
rfoot -9.03623 28.9649
rtoes 13.8121
lfemur -20.2972 6.41183 -18.5977
ltibia 36.0707
lfoot -14.8555 -4.00635
ltoes -19.323
